<svg id="Ebene_17" data-name="Ebene 17" xmlns="http://www.w3.org/2000/svg" width="572" height="510" viewBox="0 0 572 510">
  <defs>
    <style>
      .cls-1, .cls-6 {
        fill: #fff;
      }

      .cls-2 {
        fill: #e1001a;
      }

      .cls-3 {
        fill: #74a3aa;
      }

      .cls-4 {
        fill: #80b2b7;
      }

      .cls-5 {
        fill: #b4e3ef;
        opacity: 0.5;
      }

      .cls-12, .cls-6 {
        opacity: 0.6;
      }

      .cls-7 {
        fill: #8dc6d3;
      }

      .cls-8 {
        fill: #7cadb5;
      }

      .cls-9 {
        opacity: 0.41;
      }

      .cls-10 {
        fill: #8abcc4;
      }

      .cls-11 {
        fill: #66939e;
      }

      .cls-12 {
        fill: #c9e9f4;
      }

      .cls-13 {
        opacity: 0.12;
      }

      .cls-14 {
        fill: #6b492c;
      }

      .cls-15 {
        opacity: 0.9;
      }

      .cls-16, .cls-17 {
        fill: #9b7553;
      }

      .cls-16 {
        opacity: 0.8;
      }

      .cls-17 {
        opacity: 0.57;
      }

      .cls-18 {
        opacity: 0.2;
      }

      .cls-19 {
        fill: #1a171b;
        opacity: 0.1;
      }

      .cls-20, .cls-21 {
        fill: #889da5;
      }

      .cls-21 {
        opacity: 0.7;
      }
    </style>
  </defs>
  <title>duke_lupe</title>
  <path d="M329.25,249.41a177.22,177.22,0,0,0,6.39,21.3,222.5,222.5,0,0,0,8.64,20.68A189.27,189.27,0,0,0,355,310.94q3,4.67,6.26,9a89.84,89.84,0,0,0,7,8.13,45,45,0,0,0,7.83,6.39,20.45,20.45,0,0,0,4.08,2,15.85,15.85,0,0,0,4.22.84,33.14,33.14,0,0,0,9.75-1A65.66,65.66,0,0,0,404.2,333a111.11,111.11,0,0,0,19.16-10.62c3-2.07,6-4.3,8.82-6.62,1.4-1.18,2.77-2.38,4.08-3.59a38.16,38.16,0,0,0,3.48-3.64l12.2,13.8c-2,1.38-3.72,2.45-5.51,3.52s-3.52,2.08-5.29,3.06c-3.51,2-7,3.86-10.59,5.67a187.05,187.05,0,0,1-22,9.66,93,93,0,0,1-11.89,3.41,48.33,48.33,0,0,1-13.06,1.07,29.37,29.37,0,0,1-7-1.35,33.81,33.81,0,0,1-6.32-2.87A56.54,56.54,0,0,1,360,336.71a101.91,101.91,0,0,1-8.45-8.86c-2.63-3.05-5.1-6.19-7.47-9.39-4.76-6.38-9.1-13-13.29-19.65s-8.12-13.49-12-20.39-7.52-13.92-11.17-21.17Z"/>
  <g>
    <path class="cls-1" d="M55.42,476.45c41.33,12.19,111.69-66.56,163.91-64.34,44.42,1.89,89.06,75.16,130.15,66,23.09-5.14,30.21-76-12.43-203.51-16.86-50.43-12.39-108.52-3.53-138.05,14.75-49.15,45.06-84.3,37-93.21-8.58-9.44-81.62,2-150.26,60.45C126.09,184,107.81,230.22,76.06,298.84,47.31,361,24.25,467.26,55.42,476.45Z"/>
    <path d="M57.09,470.79c5.53,1.63,11.93,1.2,18.32-.36a106.26,106.26,0,0,0,19.14-7.11c12.62-6,25-13.34,37.33-20.71s24.9-14.85,38.11-21.35a178.46,178.46,0,0,1,20.5-8.63,87.65,87.65,0,0,1,22.25-4.77c1-.08,1.93-.12,2.91-.13s1.95,0,2.93,0a47.1,47.1,0,0,1,5.91.53,58.88,58.88,0,0,1,11.28,3,103.09,103.09,0,0,1,20.08,10.28c6.25,4,12.12,8.4,17.92,12.81s11.43,8.94,17.09,13.36,11.35,8.7,17.18,12.63a105.48,105.48,0,0,0,18,10c6.19,2.53,12.62,4,18.72,3.39q1.14-.12,2.27-.32l1.12-.23a4.18,4.18,0,0,0,.45-.11l.39-.1a8,8,0,0,0,2.87-1.81,20.94,20.94,0,0,0,4.5-7.1,66.87,66.87,0,0,0,3.1-9.17,91.32,91.32,0,0,0,1.94-10,156.05,156.05,0,0,0,1.34-20.87,317.07,317.07,0,0,0-3.15-42.46c-1.92-14.15-4.55-28.25-7.65-42.25s-6.69-27.93-10.63-41.76c-2-6.92-4.05-13.8-6.22-20.66a215.73,215.73,0,0,1-5.66-21.13,257.61,257.61,0,0,1-5.22-43.28c-.3-7.26-.26-14.52,0-21.77s.77-14.49,1.61-21.7a217.29,217.29,0,0,1,3.45-21.5,163.49,163.49,0,0,1,6-21,320.3,320.3,0,0,1,17.5-39.76l10-19.22c1.63-3.2,3.22-6.42,4.63-9.68.7-1.63,1.36-3.27,1.89-4.93a20.64,20.64,0,0,0,1.07-4.92,4.79,4.79,0,0,0-1.1-3.88,9.16,9.16,0,0,0-4.2-1.73A43.39,43.39,0,0,0,354.67,42a123.14,123.14,0,0,0-21.08,3.35A205.89,205.89,0,0,0,313,51.49q-10.14,3.56-19.91,8.11a301.28,301.28,0,0,0-71.69,46.85q-16.28,14.17-31.83,29.09t-29.86,31a375.08,375.08,0,0,0-49.52,69.82c-6.9,12.54-13.14,25.48-19.24,38.52q-4.57,9.78-9,19.65c-1.49,3.29-3,6.57-4.45,9.82s-2.82,6.56-4.16,9.87a401.46,401.46,0,0,0-23.51,82.35A242.25,242.25,0,0,0,46,438.66c.14,6.91.64,13.82,2.33,20a27,27,0,0,0,3.48,8.08A9.6,9.6,0,0,0,57.09,470.79Zm-3.34,11.31A20.29,20.29,0,0,1,47,478.6a23.34,23.34,0,0,1-4.86-5.3,37.38,37.38,0,0,1-5-11.73A72.07,72.07,0,0,1,35.35,450a107.44,107.44,0,0,1-.3-11.35A187.15,187.15,0,0,1,37,416.46c1-7.29,2.34-14.5,3.87-21.65,3.07-14.29,6.9-28.35,11.17-42.25s9.08-27.64,14.66-41.1q2.09-5,4.33-10c1.5-3.34,3.05-6.6,4.57-9.86l9.13-19.65c6.12-13.1,12.43-26.17,19.42-38.93a367.57,367.57,0,0,1,23.13-37,394.09,394.09,0,0,1,27.43-34c9.73-10.81,20-21.08,30.57-31s21.47-19.48,32.58-28.75a304.45,304.45,0,0,1,73.83-45.92,244.27,244.27,0,0,1,41.23-14A126.1,126.1,0,0,1,354.51,39a46.11,46.11,0,0,1,11.16.6,17.34,17.34,0,0,1,2.83.83,8.47,8.47,0,0,1,2.78,1.69,6.38,6.38,0,0,1,1.71,3,10,10,0,0,1,.25,3.14A23.32,23.32,0,0,1,372,53.88c-.58,1.78-1.28,3.48-2,5.16-1.47,3.36-3.1,6.6-4.75,9.82-3.31,6.44-6.75,12.77-10,19.19a314,314,0,0,0-17.31,39.44,161.59,161.59,0,0,0-5.87,20.63,213.72,213.72,0,0,0-3.35,21.23,261,261,0,0,0-1,43,243.65,243.65,0,0,0,6.19,42.44A208,208,0,0,0,340,275.29q3.59,10.24,6.93,20.58c8.92,27.55,16.58,55.61,21.57,84.35a306.1,306.1,0,0,1,4.63,43.71,166.56,166.56,0,0,1-.79,22.34,102.39,102.39,0,0,1-1.85,11.31,50.43,50.43,0,0,1-3.85,11.29,30.41,30.41,0,0,1-8,10.33,20.82,20.82,0,0,1-6.5,3.48l-.92.26a8.79,8.79,0,0,1-.87.21l-1.54.28c-1,.17-2.06.29-3.1.38a42.16,42.16,0,0,1-6.18,0,47,47,0,0,1-6-.87,59.52,59.52,0,0,1-11.21-3.63A111.69,111.69,0,0,1,302.73,468c-6.06-4.25-11.78-8.8-17.44-13.34-11.3-9.07-22.23-18.4-34.06-26a91.22,91.22,0,0,0-18.36-9.43,50.3,50.3,0,0,0-9.65-2.44,38.4,38.4,0,0,0-4.87-.39c-.83,0-1.65,0-2.48,0s-1.66.06-2.49.14a77.38,77.38,0,0,0-19.87,4.64,156.81,156.81,0,0,0-19.18,8.61c-12.54,6.56-24.64,14.24-36.88,21.89-6.12,3.83-12.26,7.68-18.54,11.42s-12.67,7.36-19.39,10.61a110.69,110.69,0,0,1-21.32,8.09,59.17,59.17,0,0,1-11.89,1.74A40.1,40.1,0,0,1,53.75,482.11Z"/>
  </g>
  <path d="M163.19,160.93s38.34,51.48,98.47,61.41c43.72,7.22,65.09-2.51,65.09-2.51s-5.82-52.74,10.8-97.2c13-34.87,36.84-69.12,33.56-77.92-2.5-6.7-53.33-7.34-109.8,29.45C199.89,114.17,163.19,160.93,163.19,160.93Z"/>
  <g>
    <path class="cls-2" d="M196.75,192.71c8.25-29.29,43.26-48.34,85.65-37.35,41.64,10.8,54.51,38.93,53,62-2.1,32.36-35.91,51.09-83.27,43.57C213.52,254.82,187.34,226.1,196.75,192.71Z"/>
    <path d="M193.88,191.91a53.52,53.52,0,0,1,13.39-22.34,59.5,59.5,0,0,1,10.11-8.15,66,66,0,0,1,11.52-5.81,77.35,77.35,0,0,1,25-5A93.54,93.54,0,0,1,279,153.13l3.06.77c1,.24,2,.59,3,.89l3,.92c1,.32,2,.57,3,1L297,159l5.71,2.71A69.92,69.92,0,0,1,322.81,177,58.31,58.31,0,0,1,335,199.18,56.35,56.35,0,0,1,336,224.57a44,44,0,0,1-12.19,22.51,58.94,58.94,0,0,1-21.92,13.34,90,90,0,0,1-25.11,4.8,116.7,116.7,0,0,1-12.76,0c-4.25-.22-8.46-.72-12.67-1.32a89.78,89.78,0,0,1-24.67-7.4A74.94,74.94,0,0,1,215.43,250a63.79,63.79,0,0,1-9.87-8.67A51.89,51.89,0,0,1,193,218.15a49,49,0,0,1-1.3-13.23A53.71,53.71,0,0,1,193.88,191.91Zm5.74,1.62A47.58,47.58,0,0,0,198,205.08a42.58,42.58,0,0,0,1.42,11.46,45.64,45.64,0,0,0,4.38,10.67,53.05,53.05,0,0,0,6.87,9.38,59.42,59.42,0,0,0,8.78,7.8,68.22,68.22,0,0,0,10.14,6.17,83.46,83.46,0,0,0,22.77,7.34,129.23,129.23,0,0,0,24.24,1.88A85,85,0,0,0,300.41,256a54,54,0,0,0,20.67-11.75,40.37,40.37,0,0,0,11.75-20.38,43.53,43.53,0,0,0,1-5.93c.14-1,.1-2,.15-3a26.27,26.27,0,0,0,0-3l-.14-3c-.1-1-.25-2-.38-3l-.19-1.51c-.09-.5-.21-1-.32-1.48l-.64-3a54.17,54.17,0,0,0-11.36-21.28,64.55,64.55,0,0,0-19.34-14.75c-7.25-3.83-15.21-6.16-23.17-8a90.4,90.4,0,0,0-24.36-1.74,71.56,71.56,0,0,0-23.5,5.56A58.45,58.45,0,0,0,211,173.2,47.92,47.92,0,0,0,199.61,193.52Z"/>
  </g>
  <path class="cls-1" d="M227.12,184c2.33-9.85,15-17.91,32.75-16.75,17.4,1.14,23.65,9.44,23.86,16.92.29,10.49-10.49,18.08-30.11,18.31C237.63,202.68,224.47,195.23,227.12,184Z"/>
  <path d="M143,202.64A204.53,204.53,0,0,0,146,251.4a133.86,133.86,0,0,0,6.42,23.22c2.86,7.36,6.6,14.33,11.47,19.73a31.94,31.94,0,0,0,3.9,3.62c.68.54,1.39,1,2.1,1.5a19.12,19.12,0,0,0,2,1.12,33.09,33.09,0,0,0,10.2,2.62,73.41,73.41,0,0,0,11.59.22,105.85,105.85,0,0,0,11.91-1.31,168.52,168.52,0,0,0,23.66-5.67,152.1,152.1,0,0,0,22.46-9l6.75,15.68a241.34,241.34,0,0,1-25.27,7.5c-4.23,1-8.49,2-12.78,2.75s-8.6,1.51-13,2c-8.73,1-17.62,1.62-26.88.43A46.49,46.49,0,0,1,166.52,312a31.75,31.75,0,0,1-3.48-1.94c-1-.69-2.07-1.41-3-2.19a49.77,49.77,0,0,1-5.36-5c-6.55-7.05-10.83-15.23-14.31-23.42a167.7,167.7,0,0,1-8-25.15,320.68,320.68,0,0,1-7.5-51.59Z"/>
  <path d="M425.54,323.1s7.09-5.21,6.2-16c-1.08-13-5.88-14.18-4.92-18.34,1.27-5.48,5-7.91,9.09-14.34s1.24-13.15,5.93-14.9c5-1.86,12.44,3.59,10.91,14.53-1.43,10.23-6.86,10.55-10.46,16.48-1.51,2.49-.16,9,3.29,11.56s16.92,4.8,25.92,4.47,22.7-1.76,24.31-7.73-4.09-13.74-4-20.24,5.76-14.23,13.87-11.42c4,1.4,7.73,24.14,5,35.1C507.39,316,478.63,317.64,478,317.68c0,0,2.58,2.91,18.59,2.19,13-.58,17.14-7.86,27.12-6.35,7.83,1.19,11.73,10.86,5.65,14.26-4,2.26-22.25,4.36-32.92,4.17a150.74,150.74,0,0,1-25.86-2.88A59.18,59.18,0,0,0,485.33,335c12.28,3.22,16.72-2.38,23.94,3.43,6.57,5.29,1.1,12.86-6.05,12.23-5-.44-13.59-1.13-27.92-6.71-6.34-2.47-18-9.16-32.53-10.62-8-.8-13,2.27-13,2.27Z"/>
  <g id="Ebene_19" data-name="Ebene 19">
    <g>
      <polygon class="cls-3" points="314.88 241.13 309.84 253.57 320.98 259.04 327.19 248.85 314.88 241.13"/>
      <path d="M315.34,242.56c-1.3,4-2.55,7.79-4.1,11.57l-.73-1.91L322,256.87l-3.13.91,7-9.71.48,2.05C322.6,247.77,319.08,245.27,315.34,242.56Zm-.92-2.85c4.46,2.43,9.16,5.08,13.57,7.87l1.16.73-.67,1.32L323,260.3,322,262.42l-2.06-1.21-10.73-6.3-1.21-.71.48-1.2C310.25,248.5,312.36,243.95,314.41,239.7Z"/>
    </g>
    <g>
      <path class="cls-4" d="M317.88,243.52,329.62,250s30.28,2,55-46.22c21.41-41.68,11.12-70.17,11.12-70.17l-14.54-6.92s8.83,33.85-10.67,70.47C348.42,238.71,317.88,243.52,317.88,243.52Z"/>
      <path d="M319.36,243.78c2,.85,3.95,1.58,5.74,2.33a51.38,51.38,0,0,1,5.24,2.57l-.63-.18h0a24.17,24.17,0,0,0,4.25-.43,38.46,38.46,0,0,0,4.3-1.05,51,51,0,0,0,8.23-3.39,58.11,58.11,0,0,0,7.59-4.74,66.4,66.4,0,0,0,6.92-5.73c8.74-8.28,15.7-18.4,21.35-29.16a133.58,133.58,0,0,0,7.42-16.63,113.23,113.23,0,0,0,4.94-17.48,96.08,96.08,0,0,0,1.84-18,75.55,75.55,0,0,0-.48-9c-.17-1.5-.4-3-.68-4.45a37.5,37.5,0,0,0-1-4.27l.77.84h0l-14.25-7.53,1.16-1h0a80.8,80.8,0,0,1,2.37,18.17,104.4,104.4,0,0,1-1.18,18.26,110.44,110.44,0,0,1-4.34,17.78,112.79,112.79,0,0,1-7.37,16.73,125.09,125.09,0,0,1-9.84,15.35c-1.79,2.46-3.75,4.79-5.74,7.09s-4.14,4.46-6.37,6.53a89.69,89.69,0,0,1-14.48,11.15,69.21,69.21,0,0,1-8.12,4.32q-2.09,1-4.28,1.77c-.73.27-1.47.51-2.21.75l-1.13.34-.58.16-.3.07-.15,0h0c-.08,0,0,0,.29-.09A1.42,1.42,0,0,0,319.36,243.78Zm-3-.52a1.65,1.65,0,0,1,1-1.13,1.44,1.44,0,0,1,.35-.1h0l.12,0,.26,0,.53-.09,1.06-.21q1.06-.25,2.13-.55c1.41-.41,2.82-.87,4.2-1.4a63.86,63.86,0,0,0,8.05-3.82,74.61,74.61,0,0,0,14.42-10.6,104.83,104.83,0,0,0,21.27-28.79,110,110,0,0,0,10.91-34,112.71,112.71,0,0,0,1.3-17.85q0-4.48-.39-8.95a79,79,0,0,0-1.19-8.84h0l-.5-1.66,1.66.71,14.83,6.32h0l.57.26.2.58a39.6,39.6,0,0,1,1.25,4.68c.32,1.55.59,3.11.8,4.67a78.78,78.78,0,0,1,.67,9.4,94.16,94.16,0,0,1-1.66,18.71,124.86,124.86,0,0,1-12.49,35.22,132.2,132.2,0,0,1-9.75,16,91.62,91.62,0,0,1-12.38,14.19,64.69,64.69,0,0,1-15.51,10.87,48.72,48.72,0,0,1-8.92,3.41,41.69,41.69,0,0,1-4.71,1,26.37,26.37,0,0,1-4.95.3h-.29l-.33-.18c-2.16-1.19-4.39-2.49-6.5-3.9S318.32,244.56,316.41,243.26Z"/>
    </g>
    <path class="cls-5" d="M316.93,240.9l6.84,4.51s35-1.12,56.46-45.32,7-69.67,7-69.67l-11-3.16s-31.38,18.36-45.35,46.12S316.93,240.9,316.93,240.9Z"/>
    <path class="cls-6" d="M374.89,175.63c-7.14,14.15-19.26,22.27-23.55,20s-4.84-17.1,2.29-31.25,19.26-22.27,23.55-20S382,161.48,374.89,175.63Z"/>
    <g>
      <path class="cls-7" d="M320.12,165.39c24.78-41.77,55.09-41,55.09-41L393.08,132s-30.93-2-57.88,44.44c-25.26,43.49-7.72,72.53-7.72,72.53l-16.06-9.36S293.38,210.46,320.12,165.39Z"/>
      <path d="M317.81,164a111.14,111.14,0,0,1,10.56-14.87,87.35,87.35,0,0,1,13.14-12.73,67.94,67.94,0,0,1,15.76-9.36,56.41,56.41,0,0,1,8.73-2.88,45.39,45.39,0,0,1,4.53-.86,30.44,30.44,0,0,1,4.71-.33v.33l.38.08,18,7.39a1.25,1.25,0,0,1-.51,2.41H393a26.46,26.46,0,0,0-4.47.34,42.92,42.92,0,0,0-4.51.94,53.24,53.24,0,0,0-8.69,3.2,69,69,0,0,0-15.54,10.21c-9.46,8.15-17.1,18.31-23.39,29.16a110,110,0,0,0-8,16.94,92.77,92.77,0,0,0-2.82,8.92,85.82,85.82,0,0,0-1.82,9.15,70,70,0,0,0-.2,18.56,58.27,58.27,0,0,0,1.86,9.07c.42,1.48.91,2.94,1.48,4.37a32.4,32.4,0,0,0,1.89,4.07l0,0a1.5,1.5,0,0,1-2.06,2l-16.06-9.36h0a1.46,1.46,0,0,1-.51-.5h0a34.47,34.47,0,0,1-2.36-4.57,48.8,48.8,0,0,1-1.74-4.73,60.81,60.81,0,0,1-2.21-9.8,71.34,71.34,0,0,1,.16-20,89.69,89.69,0,0,1,5.1-19.32A118.31,118.31,0,0,1,317.81,164Zm4.61,2.74A116.23,116.23,0,0,0,314,183.81l-.87,2.21-.78,2.24c-.55,1.49-1,3-1.43,4.51a90.64,90.64,0,0,0-2.11,9.21,71.78,71.78,0,0,0-.82,18.79,56.92,56.92,0,0,0,1.55,9.28,46.94,46.94,0,0,0,1.37,4.5,32.22,32.22,0,0,0,1.78,4.23h0l-.52-.51,16.06,9.36-2,2.07a34.61,34.61,0,0,1-2.1-4.54c-.6-1.52-1.11-3.07-1.55-4.63a61.21,61.21,0,0,1-1.92-9.53,72.9,72.9,0,0,1,.27-19.33,88.68,88.68,0,0,1,1.91-9.47,95.6,95.6,0,0,1,2.94-9.18A112.79,112.79,0,0,1,334,175.68c6.43-11,14.26-21.39,24.06-29.78a71.6,71.6,0,0,1,16.16-10.54,55.79,55.79,0,0,1,9.13-3.33,45.44,45.44,0,0,1,4.79-1,28.28,28.28,0,0,1,5-.35l-.57,2.41-17.79-7.77.38.08v.33a28.42,28.42,0,0,0-4.16.52,42.31,42.31,0,0,0-4.19,1,53,53,0,0,0-8.05,3.13,68.82,68.82,0,0,0-14.45,9.47,90,90,0,0,0-12,12.49A120.82,120.82,0,0,0,322.43,166.76Z"/>
    </g>
    <g>
      <polygon class="cls-8" points="308.43 252.68 262.91 332.68 278.68 341.79 322.74 260.24 308.43 252.68"/>
      <path d="M308.85,254.12c-7.21,14-14.37,27.28-21.73,40.4-3.69,6.55-7.38,13.08-11.21,19.53l-5.76,9.71c-2,3.21-3.91,6.46-5.94,9.66l-.55-2,15.77,9.11-2.07.59c-.45-.38-.38-.48-.31-.58l.17-.32.34-.64.67-1.28,1.34-2.57,2.69-5.13,5.43-10.24L298.74,300c3.7-6.78,7.46-13.53,11.21-20.29s7.58-13.47,11.48-20.14l.62,2C317.57,259.22,313.29,256.75,308.85,254.12Zm-.84-2.88c5.1,2.41,10.36,5,15.43,7.67l1.29.69-.67,1.35c-3.44,6.92-7,13.78-10.56,20.64s-7.18,13.68-10.83,20.49l-11,20.41-5.59,10.15-2.82,5.06-1.41,2.53-.7,1.27-.35.63-.18.32c0,.11-.09.22-.65.06l-2.07.59L262.16,334l-1.23-.71.68-1.33c1.76-3.46,3.62-6.88,5.44-10.34l5.62-10.29c3.76-6.88,7.65-13.68,11.55-20.47C292,277.29,300.05,263.92,308,251.24Z"/>
    </g>
    <g class="cls-9">
      <line class="cls-10" x1="267.62" y1="324.61" x2="283.03" y2="333.42"/>
      <rect x="273.83" y="320.14" width="3" height="17.75" transform="translate(-146.95 404.79) rotate(-60.25)"/>
    </g>
    <g>
      <path class="cls-11" d="M262.91,332.68s-.16,6.37,5.44,9.6c5.05,2.91,10.33-.48,10.33-.48"/>
      <path d="M272.81,345a10.28,10.28,0,0,1-5.21-1.39c-6.31-3.64-6.2-10.64-6.19-10.94l3,.08-1.5,0,1.5,0A9.81,9.81,0,0,0,269.1,341c4.21,2.43,8.72-.42,8.77-.45l1.62,2.52A13.44,13.44,0,0,1,272.81,345Z"/>
    </g>
    <path class="cls-12" d="M320.3,173.25s9.63-18.75,22.1-31S368,127.49,368,127.49l10.48,5s-20,7.62-32.8,24.48a185.23,185.23,0,0,0-14.39,22.17Z"/>
    <path class="cls-13" d="M311.64,233.91l14,8.74s-1.83-14.27-1.55-18.59.41-7.62.41-7.62l-14.16-8s.22,8.83-.16,14.43A31.94,31.94,0,0,0,311.64,233.91Z"/>
    <polygon class="cls-12" points="265.93 332.77 310.31 255.2 315.2 257.82 271.81 335.32 265.93 332.77"/>
  </g>
  <g id="Ebene_18" data-name="Ebene 18">
    <g>
      <path class="cls-14" d="M466.32,289c20.9,5.88,36.67-9.34,43.59-32.22s7-52.38-9.45-58.68c-23.62-9.07-44.24,12.71-50.77,42.6S454.41,285.64,466.32,289Z"/>
      <path d="M467.1,286.22a27.79,27.79,0,0,0,14.31.18,29.29,29.29,0,0,0,12.48-7.08,45.9,45.9,0,0,0,9-12.07,74.08,74.08,0,0,0,5.67-14.41,103.23,103.23,0,0,0,3.21-15.36,75.71,75.71,0,0,0,.51-15.63,37.74,37.74,0,0,0-3.88-14.79,18.13,18.13,0,0,0-4.71-5.73,14.94,14.94,0,0,0-3.18-1.88,31,31,0,0,0-3.62-1.27,28,28,0,0,0-7.6-1,26.61,26.61,0,0,0-7.58,1.19,33.34,33.34,0,0,0-13.16,8,51.82,51.82,0,0,0-9.43,12.5,70.69,70.69,0,0,0-6,14.56c-2.89,10.07-4.31,20.8-2.66,30.9a33.46,33.46,0,0,0,5.38,13.81A20.26,20.26,0,0,0,467.1,286.22Zm-1.56,5.54A25.69,25.69,0,0,1,451.63,281,37.14,37.14,0,0,1,446.1,265a63.39,63.39,0,0,1,.43-16.53,94.27,94.27,0,0,1,3.82-15.87c3.53-10.25,8.78-20.12,16.71-27.74a36.93,36.93,0,0,1,14-8.56,29.79,29.79,0,0,1,16.46-.39,33.21,33.21,0,0,1,4,1.3,17.47,17.47,0,0,1,3.75,2.12,20.91,20.91,0,0,1,5.64,6.37,40.75,40.75,0,0,1,4.8,15.86,83.42,83.42,0,0,1,.12,16.4,107.59,107.59,0,0,1-2.66,16.15,75.22,75.22,0,0,1-5.53,15.6,51.4,51.4,0,0,1-9.68,13.84,31.29,31.29,0,0,1-32.38,8.25Z"/>
    </g>
    <path class="cls-15" d="M497,198c-2.18,3.55-4.12,7.06-6,10.64s-3.69,7.11-5.34,10.77A194.09,194.09,0,0,0,477.34,242a230.56,230.56,0,0,0-6.25,23.3c-.82,3.92-1.53,7.84-2,11.79s-.78,7.94.25,11.95a16.14,16.14,0,0,1-2.6-5.75,31.48,31.48,0,0,1-.61-3.12c-.07-.52-.16-1-.22-1.57l-.12-1.58a61.31,61.31,0,0,1,.51-12.54c.54-4.13,1.4-8.2,2.32-12.23l.71-3c.24-1,.54-2,.8-3,.53-2,1.12-4,1.74-5.94a129.47,129.47,0,0,1,9.5-23A70.69,70.69,0,0,1,488,206.72,48.57,48.57,0,0,1,492.1,202,26.11,26.11,0,0,1,497,198Z"/>
    <path class="cls-16" d="M463.38,216.18c6.43-10.14,17.8-16.68,21.28-15.62s-8.25,12.71-12.89,21.77c-2.89,5.64-9,17.44-12.58,18S455.88,228,463.38,216.18Z"/>
    <path class="cls-17" d="M485.34,224.53c3.85-9.06,9.59-15.28,11.81-13.77,1.93,1.32-2,12.21-4.15,18.39s-6.34,13.32-8.33,13.16S482,232.29,485.34,224.53Z"/>
    <path class="cls-18" d="M448.73,266.17s4.63,20.75,19.59,23a33.25,33.25,0,0,0,32.25-13.42c18.49-27,12.64-54.12,12.64-54.12s-6,36.75-22.55,48.94c-18.58,13.67-22.81-10.83-22.81-10.83s-2.48,13-7.5,13.87C455.75,274.47,448.73,266.17,448.73,266.17Z"/>
  </g>
  <path d="M241.72,304.33s3.41,6.24,8.3,8.58c13.59,6.5,18.4-2.63,23.08-.33,17.29,8.49,6.05,21.33,17.14,21.45,10.45.12,9.52-14.33,3.44-23.19-5.15-7.51-17.81-11.3-17.81-11.3s13.87-4.53,21.52,4.37,2.23,17.36,10.33,17.51c10.78.2,12-19-.5-28.17-13.43-9.83-32.22-6.7-32.22-6.7s12.2-5.83,22.66-2.66c10.12,3.06,14.38,14.72,19.67,13,9.34-3,4.32-22.16-11.58-25.41-17.35-3.55-27.43,1.37-31.67,2.68C263.38,277.48,243,291.43,243,291.43"/>
  <path d="M494.65,289.67s-5.62-11.77,0-17.84,10.07-3.65,11.37-2.13,2.23,6,2.23,6Z"/>
  <path d="M173.59,149.46s-24,23.7-28.91,50.89c-2.86,16,.44,51.78.44,51.78L137,264.31c-.18.49-7.25-18.25-14.74-55.33-.87-4.31,6.68-11.9,17.34-26.3C148.85,170.12,173.59,149.46,173.59,149.46Z"/>
  <path class="cls-19" d="M40.55,425s-5.8,46,20.26,51.85c17.9,4,60.22-26.58,82.91-39s66.56-29.23,80-25.72,61.53,40.48,75.6,48.66,37.28,20.47,50.12,17.3,21.73-47.06,19.39-67.09S352,312.15,347,298.75s-19.91-59.59-19.91-59.59-32.41,16.93-79.29,5.67c-31.51-7.56-52.41-34.66-52.41-34.66s.85,41.89,27.05,55c51.87,26,98.47,7.24,98.47,7.24s31.75,74,18.82,133.21c-8.22,37.63-30.28,30.63-56.55,19S219.39,387,189.6,395c-38.12,10.19-89.32,46-109.44,51C48.3,453.94,40.55,425,40.55,425Z"/>
  <path class="cls-20" d="M485.33,186a35.6,35.6,0,0,1-5.62-15.3,40.19,40.19,0,0,1,1.39-16.59A81.57,81.57,0,0,1,487.58,139c2.5-4.79,5-9.45,7.15-14.26a113.86,113.86,0,0,0,5.46-14.76c.35-1.27.75-2.52,1.06-3.8l.93-3.83.77-3.87c.25-1.29.43-2.6.66-3.9a121.2,121.2,0,0,0,1.26-15.83,110.61,110.61,0,0,0-.85-16,72.93,72.93,0,0,1,3.31,15.92A93.18,93.18,0,0,1,507.47,95a87.86,87.86,0,0,1-2.71,16.23,98,98,0,0,1-5.47,15.55c-1.13,2.51-2.36,5-3.62,7.37s-2.6,4.76-3.92,7.09-2.59,4.65-3.79,7c-.58,1.17-1.16,2.35-1.67,3.54s-1,2.39-1.48,3.6a44.67,44.67,0,0,0-2,7.46c-.28,1.26-.37,2.56-.53,3.84s-.14,2.6-.1,3.9A41.31,41.31,0,0,0,485.33,186Z"/>
  <path class="cls-21" d="M465.33,162a79.62,79.62,0,0,1-4.64-16c-.9-5.53-1.43-11.24-.38-17a32.73,32.73,0,0,1,1.06-4.32c.51-1.34,1-2.7,1.59-4,1.11-2.63,2.41-5.11,3.69-7.59,2.6-4.92,5.33-9.68,7.71-14.54a84.77,84.77,0,0,0,5.86-14.92c.4-1.27.61-2.57.93-3.86s.43-2.61.65-3.91l.4-4c.15-1.34.17-2.69.27-4,.13-2.7.08-5.4,0-8.09,0-1.36-.21-2.69-.3-4s-.35-2.68-.55-4A51.48,51.48,0,0,0,476.67,36c3.55,4.32,5.69,9.65,7.3,15a68.59,68.59,0,0,1,2.41,16.73c0,1.41.08,2.83,0,4.24l-.21,4.24c-.17,1.43-.29,2.87-.52,4.28s-.48,2.84-.85,4.22a78,78,0,0,1-6,16c-2.5,5-5.33,9.84-8,14.6-1.34,2.38-2.68,4.75-3.85,7.16-.63,1.19-1.11,2.42-1.67,3.63a28.85,28.85,0,0,0-1.17,3.64,53.84,53.84,0,0,0-1,15.94A122.81,122.81,0,0,0,465.33,162Z"/>
  <path class="cls-21" d="M538,29.33c-7.23,8.8-11.2,20-10.39,31,.13,2.76.56,5.53,1,8.29s1,5.52,1.63,8.3c1.16,5.55,2.36,11.2,3,17a64.22,64.22,0,0,1-.47,17.55c-.29,1.44-.64,2.88-1,4.31s-.79,2.84-1.32,4.21a55.06,55.06,0,0,1-3.54,8c-1.38,2.57-2.88,5-4.46,7.43l-4.8,7.08c-1.61,2.34-3.11,4.73-4.53,7.18a76.83,76.83,0,0,0-3.79,7.63,56,56,0,0,1,2.8-8.12c1.15-2.63,2.47-5.2,3.85-7.71,2.8-5,5.77-9.84,8.14-14.88A58.5,58.5,0,0,0,529,110.84a62.35,62.35,0,0,0,.23-16.51c-1-11.07-4.67-22.12-4.73-33.91a41.81,41.81,0,0,1,.81-8.78A44.83,44.83,0,0,1,528,43.3a44.28,44.28,0,0,1,4.31-7.54A36.28,36.28,0,0,1,538,29.33Z"/>
</svg>
